<svg width="191" height="85" viewBox="0 0 191 85" fill="none" xmlns="http://www.w3.org/2000/svg">
<line y1="-4" x2="49.9998" y2="-4" transform="matrix(-1 0.000400434 -0.00131175 -0.999999 58 0.00146484)" stroke="#121212" stroke-width="8"/>
<line y1="-4" x2="50" y2="-4" transform="matrix(0 1 1 0 8 0)" stroke="#121212" stroke-width="8"/>
<path d="M39.6875 23.375H38.6562L23.5938 62.1562C22.125 66 20.2188 67.3438 18.5625 67.7188V69C19.8438 68.875 21.1875 68.8125 23.3438 68.8125C25.5938 68.8125 28.2812 68.875 30.7188 69V67.7188C27.0625 67.625 25.1562 66.6562 25.1562 63.875C25.1562 62.5625 25.5625 60.8438 26.4375 58.625L29.0625 51.8438H44.5L48.4375 62.3438C48.9375 63.625 49.1875 64.5938 49.1875 65.3438C49.1875 67.125 47.75 67.5938 44.6562 67.7188V69C46.4688 68.875 49.5312 68.8125 52.8438 68.8125C55.2812 68.8125 57.9688 68.875 59.7188 69V67.7188C58.375 67.6562 56.5625 66.875 55.2812 63.625L39.6875 23.375ZM44.0312 50.5625H29.5312L36.875 31.4688L44.0312 50.5625ZM80.1875 35.1562C75.8125 35.1562 72.0938 37.625 70.1875 42V18.875C68.3438 19.5312 66.0312 19.7812 63.5312 19.7812C62.25 19.7812 60.9062 19.7188 59.5625 19.5938V20.9375C63.2812 20.9375 64.4375 22.7188 64.4375 26.5625V65.875C64.4375 67.1562 64.3125 68.4375 64 69.5625L65.0625 70.0312L69.625 66.1562C71.875 68.6562 75 69.9062 78.0625 69.9062C85.75 69.9062 92.3438 64.0625 92.3438 52.5625C92.3438 40.9062 87.1562 35.1562 80.1875 35.1562ZM77.5625 68.4375C74.9062 68.4375 72.25 67.375 70.1875 65.25V45.0312C71.5 39.7812 74.9062 37.0625 78.3125 37.0625C83.625 37.0625 86.125 42.1875 86.125 52.5625C86.125 63.4375 83.25 68.4375 77.5625 68.4375ZM112.906 35.1562C104.781 35.1562 98.375 40.25 98.375 52.5625C98.375 64.8438 104.781 69.9062 112.906 69.9062C121.031 69.9062 127.438 64.8438 127.438 52.5625C127.438 40.25 121.031 35.1562 112.906 35.1562ZM112.906 36.4375C117.781 36.4375 121.219 41.0938 121.219 52.5625C121.219 64 117.781 68.625 112.906 68.625C108.062 68.625 104.594 64 104.594 52.5625C104.594 41.0938 108.062 36.4375 112.906 36.4375ZM161.344 35.3438C159.5 35.9688 157.188 36.2188 154.688 36.2188C153.406 36.2188 152.062 36.1562 150.719 36.0312V37.375C154.438 37.375 155.594 39.1875 155.594 43.0312V56.25C155.594 62.7812 151.938 67.8438 146.938 67.8438C142.344 67.8438 142.094 64.4688 142.094 60.5V35.3438C140.219 35.9688 137.938 36.2188 135.438 36.2188C134.156 36.2188 132.812 36.1562 131.469 36.0312V37.375C135.188 37.375 136.312 39.1875 136.312 43.0312V59.0938C136.312 63.125 136.844 65.75 138.438 67.4688C139.906 69 142.094 69.9062 145.094 69.9062C149.188 69.9062 153.406 67.7812 155.594 62.2188V69.7812C157.438 69.125 159.75 68.875 162.25 68.875C163.531 68.875 164.875 68.9375 166.219 69.0625V67.7188C162.5 67.7188 161.344 65.9375 161.344 62.0938V35.3438ZM179.781 36.0938V25.4062C178.188 26 176.125 26.25 174.031 26.3125V36.0938H167.875V37.375H174.031V58.8125C174.031 63.375 174.656 65.875 176.531 67.7812C177.938 69.1875 179.656 69.9062 182.594 69.9062C187.781 69.9062 190.031 66.0625 190.906 61.0625L189.656 60.75C188.312 65.75 186.438 67.5938 183.875 67.5938C181.312 67.5938 179.781 66.1875 179.781 62.1562V37.375H189.25V36.0938H179.781Z" fill="black"/>
</svg>
