<svg width="77" height="85" viewBox="0 0 77 85" fill="none" xmlns="http://www.w3.org/2000/svg">
<path d="M31.296 65.112C31.776 65.848 32.272 66.44 32.784 66.888C33.296 67.336 33.952 67.72 34.752 68.04V69C32.512 68.904 30.016 68.856 27.264 68.856C25.152 68.856 23.12 68.904 21.168 69V68.04C22.064 67.976 22.704 67.88 23.088 67.752C23.504 67.624 23.712 67.4 23.712 67.08C23.712 66.824 23.536 66.424 23.184 65.88L16.224 54.6C15.584 53.576 15.04 52.888 14.592 52.536C14.176 52.184 13.6 51.976 12.864 51.912V63.912C12.864 65.128 12.944 66.008 13.104 66.552C13.296 67.096 13.632 67.464 14.112 67.656C14.592 67.848 15.376 67.976 16.464 68.04V69C14.736 68.904 12.32 68.856 9.216 68.856C5.792 68.856 3.264 68.904 1.632 69V68.04C2.688 67.976 3.456 67.848 3.936 67.656C4.448 67.464 4.784 67.096 4.944 66.552C5.136 66.008 5.232 65.128 5.232 63.912V40.104C5.232 38.888 5.136 38.008 4.944 37.464C4.784 36.92 4.448 36.552 3.936 36.36C3.456 36.168 2.688 36.04 1.632 35.976V35.016C3.264 35.112 5.792 35.16 9.216 35.16C12.32 35.16 14.736 35.112 16.464 35.016V35.976C15.376 36.04 14.592 36.168 14.112 36.36C13.632 36.552 13.296 36.92 13.104 37.464C12.944 38.008 12.864 38.888 12.864 40.104V50.904C14.144 50.84 15.312 50.456 16.368 49.752C17.424 49.048 18.624 47.928 19.968 46.392L22.8 42.984C24.272 41.288 25.008 39.8 25.008 38.52C25.008 37.752 24.688 37.144 24.048 36.696C23.44 36.248 22.576 35.992 21.456 35.928V35.016C23.792 35.112 26.16 35.16 28.56 35.16C30.416 35.16 31.92 35.112 33.072 35.016V35.928C30.512 36.536 28.192 38.072 26.112 40.536L20.112 47.688L31.296 65.112Z" fill="#E5E5E5"/>
<path d="M74.216 24.968C72.7653 25.0533 71.72 25.224 71.08 25.48C70.44 25.736 69.992 26.2267 69.736 26.952C69.5227 27.6773 69.416 28.8507 69.416 30.472V62.216C69.416 63.8373 69.5227 65.0107 69.736 65.736C69.992 66.4613 70.44 66.952 71.08 67.208C71.7627 67.464 72.808 67.6347 74.216 67.72V69C71.8693 68.872 68.52 68.808 64.168 68.808C59.6027 68.808 56.232 68.872 54.056 69V67.72C55.592 67.6347 56.7013 67.464 57.384 67.208C58.1093 66.952 58.6 66.4613 58.856 65.736C59.112 65.0107 59.24 63.8373 59.24 62.216V28.744L43.816 69.064H42.792L25.512 27.848V58.504C25.512 61.0213 25.64 62.8773 25.896 64.072C26.152 65.224 26.7067 66.0773 27.56 66.632C28.4133 67.144 29.8 67.5067 31.72 67.72V69C30.056 68.872 27.752 68.808 24.808 68.808C22.4613 68.808 20.6053 68.872 19.24 69V67.72C20.648 67.5067 21.672 67.144 22.312 66.632C22.9947 66.12 23.4427 65.3093 23.656 64.2C23.912 63.0907 24.04 61.448 24.04 59.272V30.472C24.04 28.8507 23.912 27.6773 23.656 26.952C23.4427 26.2267 22.9947 25.736 22.312 25.48C21.672 25.224 20.648 25.0533 19.24 24.968V23.688C20.6053 23.816 22.4613 23.88 24.808 23.88C28.7333 23.88 32.104 23.816 34.92 23.688L47.848 54.856L59.624 23.88H64.168C68.52 23.88 71.8693 23.816 74.216 23.688V24.968Z" fill="#E5E5E5"/>
</svg>
