<svg width="30" height="27" viewBox="0 0 30 27" fill="none" xmlns="http://www.w3.org/2000/svg">
<path d="M11.8218 24.542C12.0018 24.818 12.1878 25.04 12.3798 25.208C12.5718 25.376 12.8178 25.52 13.1178 25.64V26C12.2778 25.964 11.3418 25.946 10.3098 25.946C9.51782 25.946 8.75582 25.964 8.02382 26V25.64C8.35982 25.616 8.59982 25.58 8.74382 25.532C8.89982 25.484 8.97782 25.4 8.97782 25.28C8.97782 25.184 8.91182 25.034 8.77982 24.83L6.16982 20.6C5.92982 20.216 5.72582 19.958 5.55782 19.826C5.40182 19.694 5.18582 19.616 4.90982 19.592V24.092C4.90982 24.548 4.93982 24.878 4.99982 25.082C5.07182 25.286 5.19782 25.424 5.37782 25.496C5.55782 25.568 5.85182 25.616 6.25982 25.64V26C5.61182 25.964 4.70582 25.946 3.54182 25.946C2.25782 25.946 1.30982 25.964 0.697815 26V25.64C1.09382 25.616 1.38182 25.568 1.56182 25.496C1.75382 25.424 1.87982 25.286 1.93982 25.082C2.01182 24.878 2.04782 24.548 2.04782 24.092V15.164C2.04782 14.708 2.01182 14.378 1.93982 14.174C1.87982 13.97 1.75382 13.832 1.56182 13.76C1.38182 13.688 1.09382 13.64 0.697815 13.616V13.256C1.30982 13.292 2.25782 13.31 3.54182 13.31C4.70582 13.31 5.61182 13.292 6.25982 13.256V13.616C5.85182 13.64 5.55782 13.688 5.37782 13.76C5.19782 13.832 5.07182 13.97 4.99982 14.174C4.93982 14.378 4.90982 14.708 4.90982 15.164V19.214C5.38982 19.19 5.82782 19.046 6.22382 18.782C6.61982 18.518 7.06982 18.098 7.57382 17.522L8.63582 16.244C9.18782 15.608 9.46382 15.05 9.46382 14.57C9.46382 14.282 9.34382 14.054 9.10382 13.886C8.87582 13.718 8.55182 13.622 8.13182 13.598V13.256C9.00782 13.292 9.89582 13.31 10.7958 13.31C11.4918 13.31 12.0558 13.292 12.4878 13.256V13.598C11.5278 13.826 10.6578 14.402 9.87782 15.326L7.62782 18.008L11.8218 24.542Z" fill="white"/>
<path d="M28.5794 9.488C28.0354 9.52 27.6434 9.584 27.4034 9.68C27.1634 9.776 26.9954 9.96 26.8994 10.232C26.8194 10.504 26.7794 10.944 26.7794 11.552V23.456C26.7794 24.064 26.8194 24.504 26.8994 24.776C26.9954 25.048 27.1634 25.232 27.4034 25.328C27.6594 25.424 28.0514 25.488 28.5794 25.52V26C27.6994 25.952 26.4434 25.928 24.8114 25.928C23.0994 25.928 21.8354 25.952 21.0194 26V25.52C21.5954 25.488 22.0114 25.424 22.2674 25.328C22.5394 25.232 22.7234 25.048 22.8194 24.776C22.9154 24.504 22.9634 24.064 22.9634 23.456V10.904L17.1794 26.024H16.7954L10.3154 10.568V22.064C10.3154 23.008 10.3634 23.704 10.4594 24.152C10.5554 24.584 10.7634 24.904 11.0834 25.112C11.4034 25.304 11.9234 25.44 12.6434 25.52V26C12.0194 25.952 11.1554 25.928 10.0514 25.928C9.17135 25.928 8.47535 25.952 7.96335 26V25.52C8.49135 25.44 8.87535 25.304 9.11535 25.112C9.37135 24.92 9.53935 24.616 9.61935 24.2C9.71535 23.784 9.76335 23.168 9.76335 22.352V11.552C9.76335 10.944 9.71535 10.504 9.61935 10.232C9.53935 9.96 9.37135 9.776 9.11535 9.68C8.87535 9.584 8.49135 9.52 7.96335 9.488V9.008C8.47535 9.056 9.17135 9.08 10.0514 9.08C11.5234 9.08 12.7874 9.056 13.8434 9.008L18.6914 20.696L23.1074 9.08H24.8114C26.4434 9.08 27.6994 9.056 28.5794 9.008V9.488Z" fill="white"/>
</svg>
