<svg width="276" height="92" viewBox="0 0 276 92" fill="none" xmlns="http://www.w3.org/2000/svg">
<path d="M39.8125 57.6875H44.75C58 57.6875 61.5938 49.5625 61.5938 43.375C61.5938 35.9375 56.4688 30.75 46.1562 30.75C44.625 30.75 40.5312 30.875 36.5 30.875C33.6875 30.875 30.4688 30.8125 28.6875 30.6875V31.9688C33.0312 32.1562 33.875 32.8125 33.875 37.4688V69.2188C33.875 73.875 33.0312 74.5312 28.6875 74.7188V76C30.4688 75.875 33.5625 75.8125 36.875 75.8125C40.3438 75.8125 44.0625 75.875 46.2812 76V74.7188C40.9062 74.5312 39.8125 73.875 39.8125 69.2188V57.6875ZM44.5625 31.9688C52.3125 31.9688 55.1875 36 55.1875 44.0625C55.1875 50.5938 53.1875 56.4062 44.125 56.4062H39.8125V37.4688C39.8125 33.0625 40.6562 31.9688 44.5625 31.9688ZM80.2188 42.1562C72.0938 42.1562 65.6875 47.25 65.6875 59.5625C65.6875 71.8438 72.0938 76.9062 80.2188 76.9062C88.3438 76.9062 94.75 71.8438 94.75 59.5625C94.75 47.25 88.3438 42.1562 80.2188 42.1562ZM80.2188 43.4375C85.0938 43.4375 88.5312 48.0938 88.5312 59.5625C88.5312 71 85.0938 75.625 80.2188 75.625C75.375 75.625 71.9062 71 71.9062 59.5625C71.9062 48.0938 75.375 43.4375 80.2188 43.4375ZM119.5 42.1562C115.031 42.1562 111.562 46.625 110.219 50.3438V42.3438C108.375 42.9688 106.062 43.2188 103.562 43.2188C102.281 43.2188 100.938 43.1562 99.5938 43.0312V44.375C103.312 44.375 104.469 46.1875 104.469 50.0312V70.0625C104.469 73.625 103.125 74.6562 99.5938 74.6562V76C101.062 75.9375 104.219 75.75 107.156 75.75C111.125 75.75 115.031 75.9375 117 76V74.6562C112.781 74.6562 110.219 73.5625 110.219 69.4062V55.8438C110.219 51.0938 113.75 43.8125 119.125 43.8125C119.688 43.8125 120.156 44 120.469 44.4375C119.312 45.1562 118.281 46.3125 118.281 47.9062C118.281 50.0312 119.906 51.2188 121.688 51.2188C123.938 51.2188 125.344 49.375 125.344 47.1875C125.344 44.4375 122.969 42.1562 119.5 42.1562ZM138.406 43.0938V32.4062C136.812 33 134.75 33.25 132.656 33.3125V43.0938H126.5V44.375H132.656V65.8125C132.656 70.375 133.281 72.875 135.156 74.7812C136.562 76.1875 138.281 76.9062 141.219 76.9062C146.406 76.9062 148.656 73.0625 149.531 68.0625L148.281 67.75C146.938 72.75 145.062 74.5938 142.5 74.5938C139.938 74.5938 138.406 73.1875 138.406 69.1562V44.375H147.875V43.0938H138.406ZM166.594 25.9375C163.469 25.9375 160.656 27.1562 159 29.1562C156.562 32.0312 155.719 35.5625 155.719 43.0938H150.594V44.375H155.719V70.0625C155.719 73.625 154.375 74.6562 150.844 74.6562V76C152.344 75.9375 155.469 75.75 158.406 75.75C162.375 75.75 166.281 75.9375 168.25 76V74.6562C164.031 74.6562 161.469 73.5625 161.469 69.4062V44.375H168.344V43.0938H161.469V41.4375C161.469 34.1562 161.625 31.0625 162.625 29.2812C163.406 27.875 164.812 26.9062 166.781 26.9062C168.594 26.9062 169.688 27.5625 169.938 28.3125C168.344 28.625 167.25 29.7812 167.25 31.5938C167.25 33.75 168.844 35.0312 170.75 35.0312C172.75 35.0312 174.156 33.625 174.156 31.6562C174.156 30.125 173.438 28.7188 172.156 27.6875C170.812 26.6562 168.969 25.9375 166.594 25.9375ZM186.594 42.1562C178.469 42.1562 172.062 47.25 172.062 59.5625C172.062 71.8438 178.469 76.9062 186.594 76.9062C194.719 76.9062 201.125 71.8438 201.125 59.5625C201.125 47.25 194.719 42.1562 186.594 42.1562ZM186.594 43.4375C191.469 43.4375 194.906 48.0938 194.906 59.5625C194.906 71 191.469 75.625 186.594 75.625C181.75 75.625 178.281 71 178.281 59.5625C178.281 48.0938 181.75 43.4375 186.594 43.4375ZM215.531 25.8125C213.688 26.4688 211.375 26.7188 208.875 26.7188C207.594 26.7188 206.25 26.6562 204.906 26.5312V27.875C208.625 27.875 209.781 29.6562 209.781 33.5V70.0625C209.781 73.625 208.438 74.6562 204.906 74.6562V76C206.375 75.9375 209.719 75.75 212.656 75.75C215.594 75.75 218.938 75.9375 220.406 76V74.6562C216.875 74.6562 215.531 73.625 215.531 70.0625V25.8125ZM230.969 27.0312C228.719 27.0312 226.875 28.9062 226.875 31.125C226.875 33.375 228.719 35.2188 230.969 35.2188C233.188 35.2188 235.062 33.375 235.062 31.125C235.062 28.9062 233.188 27.0312 230.969 27.0312ZM234.281 42.3438C232.438 42.9688 230.125 43.2188 227.625 43.2188C226.344 43.2188 225 43.1562 223.656 43.0312V44.375C227.375 44.375 228.531 46.1875 228.531 50.0312V70.0625C228.531 73.625 227.188 74.6562 223.656 74.6562V76C225.125 75.9375 228.469 75.75 231.406 75.75C234.344 75.75 237.688 75.9375 239.156 76V74.6562C235.625 74.6562 234.281 73.625 234.281 70.0625V42.3438ZM258.094 42.1562C249.969 42.1562 243.562 47.25 243.562 59.5625C243.562 71.8438 249.969 76.9062 258.094 76.9062C266.219 76.9062 272.625 71.8438 272.625 59.5625C272.625 47.25 266.219 42.1562 258.094 42.1562ZM258.094 43.4375C262.969 43.4375 266.406 48.0938 266.406 59.5625C266.406 71 262.969 75.625 258.094 75.625C253.25 75.625 249.781 71 249.781 59.5625C249.781 48.0938 253.25 43.4375 258.094 43.4375Z" fill="black"/>
<line y1="-4" x2="49.9998" y2="-4" transform="matrix(-1 0.000400434 -0.00131175 -0.999999 58 0.00146484)" stroke="#121212" stroke-width="8"/>
<line y1="-4" x2="50" y2="-4" transform="matrix(0 1 1 0 8 0)" stroke="#121212" stroke-width="8"/>
</svg>
