<svg width="210" height="92" viewBox="0 0 210 92" fill="none" xmlns="http://www.w3.org/2000/svg">
<path d="M46.8125 57.6875H51.75C65 57.6875 68.5938 49.5625 68.5938 43.375C68.5938 35.9375 63.4688 30.75 53.1562 30.75C51.625 30.75 47.5312 30.875 43.5 30.875C40.6875 30.875 37.4688 30.8125 35.6875 30.6875V31.9688C40.0312 32.1562 40.875 32.8125 40.875 37.4688V69.2188C40.875 73.875 40.0312 74.5312 35.6875 74.7188V76C37.4688 75.875 40.5625 75.8125 43.875 75.8125C47.3438 75.8125 51.0625 75.875 53.2812 76V74.7188C47.9062 74.5312 46.8125 73.875 46.8125 69.2188V57.6875ZM51.5625 31.9688C59.3125 31.9688 62.1875 36 62.1875 44.0625C62.1875 50.5938 60.1875 56.4062 51.125 56.4062H46.8125V37.4688C46.8125 33.0625 47.6562 31.9688 51.5625 31.9688ZM92.1875 42.1562C87.7188 42.1562 84.25 46.625 82.9062 50.3438V42.3438C81.0625 42.9688 78.75 43.2188 76.25 43.2188C74.9688 43.2188 73.625 43.1562 72.2812 43.0312V44.375C76 44.375 77.1562 46.1875 77.1562 50.0312V70.0625C77.1562 73.625 75.8125 74.6562 72.2812 74.6562V76C73.75 75.9375 76.9062 75.75 79.8438 75.75C83.8125 75.75 87.7188 75.9375 89.6875 76V74.6562C85.4688 74.6562 82.9062 73.5625 82.9062 69.4062V55.8438C82.9062 51.0938 86.4375 43.8125 91.8125 43.8125C92.375 43.8125 92.8438 44 93.1562 44.4375C92 45.1562 90.9688 46.3125 90.9688 47.9062C90.9688 50.0312 92.5938 51.2188 94.375 51.2188C96.625 51.2188 98.0312 49.375 98.0312 47.1875C98.0312 44.4375 95.6562 42.1562 92.1875 42.1562ZM108.094 27.0312C105.844 27.0312 104 28.9062 104 31.125C104 33.375 105.844 35.2188 108.094 35.2188C110.312 35.2188 112.188 33.375 112.188 31.125C112.188 28.9062 110.312 27.0312 108.094 27.0312ZM111.406 42.3438C109.562 42.9688 107.25 43.2188 104.75 43.2188C103.469 43.2188 102.125 43.1562 100.781 43.0312V44.375C104.5 44.375 105.656 46.1875 105.656 50.0312V70.0625C105.656 73.625 104.312 74.6562 100.781 74.6562V76C102.25 75.9375 105.594 75.75 108.531 75.75C111.469 75.75 114.812 75.9375 116.281 76V74.6562C112.75 74.6562 111.406 73.625 111.406 70.0625V42.3438ZM135.531 42.1562C126.781 42.1562 120.625 49.4375 120.625 59.9375C120.625 70.5 126.844 76.9062 134.781 76.9062C141.625 76.9062 145.281 72.1562 146.562 68L145.344 67.5625C143.094 72.4062 139.375 74.1562 136.062 74.1562C131.125 74.1562 126.844 70.3125 126.844 58.9688C126.844 46.875 131.781 43.2812 136 43.2812C138.438 43.2812 140.906 44.4375 141.75 45.9688C140.281 46.375 139.062 47.5938 139.062 49.5C139.062 51.5625 140.656 52.7188 142.594 52.7188C144.5 52.7188 145.969 51.4375 145.969 49.125C145.969 47.1875 144.875 45.4688 142.969 44.1875C140.906 42.8438 138.219 42.1562 135.531 42.1562ZM177.156 67.8125C174.938 72.5938 171.594 74.2188 167.75 74.2188C162.844 74.2188 157.969 69.0938 157.969 60.3125C157.969 58.9062 158.031 57.4375 158.188 56.2188H178.188C178.188 46.5625 173.719 42.1562 166.219 42.1562C157.438 42.1562 151.75 49.0625 151.75 60.3125C151.75 70.125 157.188 76.9062 166.469 76.9062C172.812 76.9062 177.031 72.5938 178.438 68.3125L177.156 67.8125ZM165.969 43.375C170.25 43.375 172.25 48.75 172.031 55H158.094C158.781 46.9375 162.156 43.375 165.969 43.375ZM194.438 42.1562C189.375 42.1562 184.969 44.7188 184.969 50.4062C184.969 55.7188 189.125 58.2188 193.781 61.1562C197.969 63.7812 201.031 65.8125 201.031 69.5312C201.031 74.0938 197.906 75.625 195.344 75.625C188.938 75.625 187.281 70.8125 186.438 63.6562H184.969C184.969 70.125 184.906 73.6875 184.719 76.4375H186.188C186.438 74.8438 186.938 74.0312 187.5 74.0312C187.688 74.0312 187.906 74.0938 188.094 74.2812C188.938 74.9688 189.812 75.5625 190.719 76C192.25 76.625 193.938 76.9062 195.781 76.9062C201.594 76.9062 206.719 73.8125 206.719 67.9375C206.719 62.6875 202.812 59.875 197.969 56.75C193.594 53.9062 189.75 52.125 189.75 48.2812C189.75 45.0938 192 43.375 195 43.375C200.781 43.375 202.938 48.3438 203.719 53.0938H205.188C205.188 47.5938 205.25 44.5625 205.438 42.2188H203.969C203.75 44.125 203.281 45.0312 202.531 45.0312C202.219 45.0312 201.844 44.8438 201.406 44.5C200.25 43.5625 197.812 42.1562 194.438 42.1562Z" fill="black"/>
<line y1="-4" x2="49.9998" y2="-4" transform="matrix(-1 0.000400434 -0.00131175 -0.999999 58 0.00146484)" stroke="#121212" stroke-width="8"/>
<line y1="-4" x2="50" y2="-4" transform="matrix(0 1 1 0 8 0)" stroke="#121212" stroke-width="8"/>
</svg>
