<svg width="262" height="79" viewBox="0 0 262 79" fill="none" xmlns="http://www.w3.org/2000/svg">
<path d="M34.375 22.9688C28.0625 22.9688 22.3438 26.5 22.3438 34.0625C22.3438 41.2812 27.6562 44.75 33.75 48.4062C39.6875 51.9688 43.7188 54.9062 43.7188 60.0938C43.7188 66.125 39.5625 68.625 35.4062 68.625C27.2188 68.625 24.2812 61.8438 23.75 54.0938H22.2812C22.2812 63.125 22.2188 66.8125 22.0312 69.4375H23.5C23.75 67.5938 24.0938 66.625 24.9062 66.625C25.4375 66.625 26.0625 66.875 27.0938 67.5312C28.9375 68.6875 31.3125 69.9062 35.8438 69.9062C43.2812 69.9062 49.4375 65.875 49.4375 57.75C49.4375 50.875 44.5625 47.5 37.9062 43.3438C32.1562 39.75 27.1562 37.4375 27.1562 31.625C27.1562 27.2188 30.4062 24.1875 34.9688 24.1875C42.0625 24.1875 45 30.4062 45.4688 36.5H46.9375C46.9375 28.4375 47.0625 25.6875 47.25 23.4375H45.7812C45.5312 25.2812 45.1875 26.25 44.375 26.25C43.7812 26.25 43.2188 26 42.1875 25.3438C40.4688 24.1875 38.5938 22.9688 34.375 22.9688ZM80.9062 60.8125C78.6875 65.5938 75.3438 67.2188 71.5 67.2188C66.5938 67.2188 61.7188 62.0938 61.7188 53.3125C61.7188 51.9062 61.7812 50.4375 61.9375 49.2188H81.9375C81.9375 39.5625 77.4688 35.1562 69.9688 35.1562C61.1875 35.1562 55.5 42.0625 55.5 53.3125C55.5 63.125 60.9375 69.9062 70.2188 69.9062C76.5625 69.9062 80.7812 65.5938 82.1875 61.3125L80.9062 60.8125ZM69.7188 36.375C74 36.375 76 41.75 75.7812 48H61.8438C62.5312 39.9375 65.9062 36.375 69.7188 36.375ZM106.688 35.1562C102.219 35.1562 98.75 39.625 97.4062 43.3438V35.3438C95.5625 35.9688 93.25 36.2188 90.75 36.2188C89.4688 36.2188 88.125 36.1562 86.7812 36.0312V37.375C90.5 37.375 91.6562 39.1875 91.6562 43.0312V63.0625C91.6562 66.625 90.3125 67.6562 86.7812 67.6562V69C88.25 68.9375 91.4062 68.75 94.3438 68.75C98.3125 68.75 102.219 68.9375 104.188 69V67.6562C99.9688 67.6562 97.4062 66.5625 97.4062 62.4062V48.8438C97.4062 44.0938 100.938 36.8125 106.312 36.8125C106.875 36.8125 107.344 37 107.656 37.4375C106.5 38.1562 105.469 39.3125 105.469 40.9062C105.469 43.0312 107.094 44.2188 108.875 44.2188C111.125 44.2188 112.531 42.375 112.531 40.1875C112.531 37.4375 110.156 35.1562 106.688 35.1562ZM139.688 36.2188C137.688 36.2188 136.531 36.1562 134.312 36.0312V37.3125C137.562 37.5312 139.031 38.375 139.031 40.375C139.031 41.1562 138.812 42.1562 138.344 43.3438L131.281 61.8438L123.406 42.375C122.938 41.1875 122.719 40.2812 122.719 39.5625C122.719 37.375 124.812 37.375 127.25 37.375V36.0312C124.688 36.2188 121.562 36.2812 118.938 36.2812C116.75 36.2812 114.969 36.1562 113.312 36.0312V37.375C114.219 37.375 115.625 37.625 117.031 40.9688L128.812 69.3125H129.875L140.375 41.8125C141.594 38.5312 142.938 37.5 144.531 37.3125V36.0312C143.188 36.1562 141.656 36.2188 139.688 36.2188ZM153.906 20.0312C151.656 20.0312 149.812 21.9062 149.812 24.125C149.812 26.375 151.656 28.2188 153.906 28.2188C156.125 28.2188 158 26.375 158 24.125C158 21.9062 156.125 20.0312 153.906 20.0312ZM157.219 35.3438C155.375 35.9688 153.062 36.2188 150.562 36.2188C149.281 36.2188 147.938 36.1562 146.594 36.0312V37.375C150.312 37.375 151.469 39.1875 151.469 43.0312V63.0625C151.469 66.625 150.125 67.6562 146.594 67.6562V69C148.062 68.9375 151.406 68.75 154.344 68.75C157.281 68.75 160.625 68.9375 162.094 69V67.6562C158.562 67.6562 157.219 66.625 157.219 63.0625V35.3438Z" fill="black"/>
<path d="M181.344 35.1562C172.594 35.1562 166.438 42.4375 166.438 52.9375C166.438 63.5 172.656 69.9062 180.594 69.9062C187.438 69.9062 191.094 65.1562 192.375 61L191.156 60.5625C188.906 65.4062 185.188 67.1562 181.875 67.1562C176.938 67.1562 172.656 63.3125 172.656 51.9688C172.656 39.875 177.594 36.2812 181.812 36.2812C184.25 36.2812 186.719 37.4375 187.562 38.9688C186.094 39.375 184.875 40.5938 184.875 42.5C184.875 44.5625 186.469 45.7188 188.406 45.7188C190.312 45.7188 191.781 44.4375 191.781 42.125C191.781 40.1875 190.688 38.4688 188.781 37.1875C186.719 35.8438 184.031 35.1562 181.344 35.1562ZM222.969 60.8125C220.75 65.5938 217.406 67.2188 213.562 67.2188C208.656 67.2188 203.781 62.0938 203.781 53.3125C203.781 51.9062 203.844 50.4375 204 49.2188H224C224 39.5625 219.531 35.1562 212.031 35.1562C203.25 35.1562 197.562 42.0625 197.562 53.3125C197.562 63.125 203 69.9062 212.281 69.9062C218.625 69.9062 222.844 65.5938 224.25 61.3125L222.969 60.8125ZM211.781 36.375C216.062 36.375 218.062 41.75 217.844 48H203.906C204.594 39.9375 207.969 36.375 211.781 36.375ZM240.25 35.1562C235.188 35.1562 230.781 37.7188 230.781 43.4062C230.781 48.7188 234.938 51.2188 239.594 54.1562C243.781 56.7812 246.844 58.8125 246.844 62.5312C246.844 67.0938 243.719 68.625 241.156 68.625C234.75 68.625 233.094 63.8125 232.25 56.6562H230.781C230.781 63.125 230.719 66.6875 230.531 69.4375H232C232.25 67.8438 232.75 67.0312 233.312 67.0312C233.5 67.0312 233.719 67.0938 233.906 67.2812C234.75 67.9688 235.625 68.5625 236.531 69C238.062 69.625 239.75 69.9062 241.594 69.9062C247.406 69.9062 252.531 66.8125 252.531 60.9375C252.531 55.6875 248.625 52.875 243.781 49.75C239.406 46.9062 235.562 45.125 235.562 41.2812C235.562 38.0938 237.812 36.375 240.812 36.375C246.594 36.375 248.75 41.3438 249.531 46.0938H251C251 40.5938 251.062 37.5625 251.25 35.2188H249.781C249.562 37.125 249.094 38.0312 248.344 38.0312C248.031 38.0312 247.656 37.8438 247.219 37.5C246.062 36.5625 243.625 35.1562 240.25 35.1562Z" fill="white"/>
<line y1="-4" x2="49.9998" y2="-4" transform="matrix(-1 0.000400434 -0.00131175 -0.999999 58 0.00146484)" stroke="#121212" stroke-width="8"/>
<line y1="-4" x2="50" y2="-4" transform="matrix(0 1 1 0 8 0)" stroke="#121212" stroke-width="8"/>
</svg>
